<mxfile host="app.diagrams.net" modified="2021-04-11T04:18:01.342Z" agent="5.0 (Windows NT 10.0; Win64; x64) AppleWebKit/537.36 (KHTML, like Gecko) Chrome/89.0.4389.114 Safari/537.36 Edg/89.0.774.68" etag="g1BXNLJpF01psd0fibkb" version="14.5.10" type="github">
  <diagram id="C5RBs43oDa-KdzZeNtuy" name="Page-1">
    <mxGraphModel dx="1108" dy="794" grid="1" gridSize="10" guides="1" tooltips="1" connect="1" arrows="1" fold="1" page="1" pageScale="1" pageWidth="827" pageHeight="1169" math="0" shadow="0">
      <root>
        <mxCell id="WIyWlLk6GJQsqaUBKTNV-0" />
        <mxCell id="WIyWlLk6GJQsqaUBKTNV-1" parent="WIyWlLk6GJQsqaUBKTNV-0" />
        <mxCell id="Qqjow-uwfhJ0Yn_dfTo8-76" value="" style="edgeStyle=orthogonalEdgeStyle;rounded=0;orthogonalLoop=1;jettySize=auto;html=1;" edge="1" parent="WIyWlLk6GJQsqaUBKTNV-1" source="WIyWlLk6GJQsqaUBKTNV-3" target="Qqjow-uwfhJ0Yn_dfTo8-47">
          <mxGeometry relative="1" as="geometry" />
        </mxCell>
        <mxCell id="WIyWlLk6GJQsqaUBKTNV-3" value="Query statment" style="rounded=1;whiteSpace=wrap;html=1;fontSize=12;glass=0;strokeWidth=1;shadow=0;" parent="WIyWlLk6GJQsqaUBKTNV-1" vertex="1">
          <mxGeometry x="127.5" y="250" width="120" height="40" as="geometry" />
        </mxCell>
        <mxCell id="Qqjow-uwfhJ0Yn_dfTo8-36" style="edgeStyle=orthogonalEdgeStyle;rounded=0;orthogonalLoop=1;jettySize=auto;html=1;entryX=0.5;entryY=0;entryDx=0;entryDy=0;" edge="1" parent="WIyWlLk6GJQsqaUBKTNV-1" source="Qqjow-uwfhJ0Yn_dfTo8-0" target="Qqjow-uwfhJ0Yn_dfTo8-19">
          <mxGeometry relative="1" as="geometry" />
        </mxCell>
        <mxCell id="Qqjow-uwfhJ0Yn_dfTo8-0" value="Read Account" style="shape=parallelogram;perimeter=parallelogramPerimeter;whiteSpace=wrap;html=1;fixedSize=1;" vertex="1" parent="WIyWlLk6GJQsqaUBKTNV-1">
          <mxGeometry x="127.5" y="80" width="120" height="60" as="geometry" />
        </mxCell>
        <mxCell id="Qqjow-uwfhJ0Yn_dfTo8-6" value="No" style="text;html=1;strokeColor=none;fillColor=none;align=center;verticalAlign=middle;whiteSpace=wrap;rounded=0;" vertex="1" parent="WIyWlLk6GJQsqaUBKTNV-1">
          <mxGeometry x="280" y="375" width="40" height="20" as="geometry" />
        </mxCell>
        <mxCell id="Qqjow-uwfhJ0Yn_dfTo8-43" value="" style="edgeStyle=orthogonalEdgeStyle;rounded=0;orthogonalLoop=1;jettySize=auto;html=1;" edge="1" parent="WIyWlLk6GJQsqaUBKTNV-1" source="Qqjow-uwfhJ0Yn_dfTo8-19" target="WIyWlLk6GJQsqaUBKTNV-3">
          <mxGeometry relative="1" as="geometry" />
        </mxCell>
        <mxCell id="Qqjow-uwfhJ0Yn_dfTo8-19" value="Scan Account Type" style="rounded=1;whiteSpace=wrap;html=1;fontSize=12;glass=0;strokeWidth=1;shadow=0;" vertex="1" parent="WIyWlLk6GJQsqaUBKTNV-1">
          <mxGeometry x="127.5" y="170" width="120" height="40" as="geometry" />
        </mxCell>
        <mxCell id="Qqjow-uwfhJ0Yn_dfTo8-37" value="End" style="ellipse;whiteSpace=wrap;html=1;" vertex="1" parent="WIyWlLk6GJQsqaUBKTNV-1">
          <mxGeometry x="131.25" y="1010" width="112.5" height="50" as="geometry" />
        </mxCell>
        <mxCell id="Qqjow-uwfhJ0Yn_dfTo8-71" value="" style="edgeStyle=orthogonalEdgeStyle;rounded=0;orthogonalLoop=1;jettySize=auto;html=1;" edge="1" parent="WIyWlLk6GJQsqaUBKTNV-1" source="Qqjow-uwfhJ0Yn_dfTo8-47" target="Qqjow-uwfhJ0Yn_dfTo8-70">
          <mxGeometry relative="1" as="geometry" />
        </mxCell>
        <mxCell id="Qqjow-uwfhJ0Yn_dfTo8-81" value="" style="edgeStyle=orthogonalEdgeStyle;rounded=0;orthogonalLoop=1;jettySize=auto;html=1;" edge="1" parent="WIyWlLk6GJQsqaUBKTNV-1" source="Qqjow-uwfhJ0Yn_dfTo8-47" target="Qqjow-uwfhJ0Yn_dfTo8-49">
          <mxGeometry relative="1" as="geometry" />
        </mxCell>
        <mxCell id="Qqjow-uwfhJ0Yn_dfTo8-47" value="&lt;font face=&quot;angsanaupc, serif&quot;&gt;&lt;span style=&quot;font-size: 21.3333px&quot;&gt;type CA ?&lt;br&gt;and&lt;br&gt;&amp;nbsp;data &amp;gt; 10,000 ?&lt;/span&gt;&lt;/font&gt;" style="rhombus;whiteSpace=wrap;html=1;" vertex="1" parent="WIyWlLk6GJQsqaUBKTNV-1">
          <mxGeometry x="95" y="340" width="185" height="110" as="geometry" />
        </mxCell>
        <mxCell id="Qqjow-uwfhJ0Yn_dfTo8-53" value="" style="edgeStyle=orthogonalEdgeStyle;rounded=0;orthogonalLoop=1;jettySize=auto;html=1;" edge="1" parent="WIyWlLk6GJQsqaUBKTNV-1" source="Qqjow-uwfhJ0Yn_dfTo8-49" target="Qqjow-uwfhJ0Yn_dfTo8-52">
          <mxGeometry relative="1" as="geometry" />
        </mxCell>
        <mxCell id="Qqjow-uwfhJ0Yn_dfTo8-49" value="Programe is terminated" style="shape=display;whiteSpace=wrap;html=1;" vertex="1" parent="WIyWlLk6GJQsqaUBKTNV-1">
          <mxGeometry x="127.5" y="780" width="120" height="50" as="geometry" />
        </mxCell>
        <mxCell id="Qqjow-uwfhJ0Yn_dfTo8-54" value="" style="edgeStyle=orthogonalEdgeStyle;rounded=0;orthogonalLoop=1;jettySize=auto;html=1;" edge="1" parent="WIyWlLk6GJQsqaUBKTNV-1" source="Qqjow-uwfhJ0Yn_dfTo8-52" target="Qqjow-uwfhJ0Yn_dfTo8-37">
          <mxGeometry relative="1" as="geometry" />
        </mxCell>
        <mxCell id="Qqjow-uwfhJ0Yn_dfTo8-52" value="Terminate" style="rounded=1;whiteSpace=wrap;html=1;fontSize=12;glass=0;strokeWidth=1;shadow=0;" vertex="1" parent="WIyWlLk6GJQsqaUBKTNV-1">
          <mxGeometry x="127.5" y="900" width="120" height="40" as="geometry" />
        </mxCell>
        <mxCell id="Qqjow-uwfhJ0Yn_dfTo8-67" value="" style="edgeStyle=orthogonalEdgeStyle;rounded=0;orthogonalLoop=1;jettySize=auto;html=1;" edge="1" parent="WIyWlLk6GJQsqaUBKTNV-1" source="Qqjow-uwfhJ0Yn_dfTo8-55" target="Qqjow-uwfhJ0Yn_dfTo8-60">
          <mxGeometry relative="1" as="geometry" />
        </mxCell>
        <mxCell id="Qqjow-uwfhJ0Yn_dfTo8-55" value="New Page" style="rounded=1;whiteSpace=wrap;html=1;fontSize=12;glass=0;strokeWidth=1;shadow=0;" vertex="1" parent="WIyWlLk6GJQsqaUBKTNV-1">
          <mxGeometry x="340" y="460" width="120" height="40" as="geometry" />
        </mxCell>
        <mxCell id="Qqjow-uwfhJ0Yn_dfTo8-93" style="edgeStyle=orthogonalEdgeStyle;rounded=0;orthogonalLoop=1;jettySize=auto;html=1;" edge="1" parent="WIyWlLk6GJQsqaUBKTNV-1" source="Qqjow-uwfhJ0Yn_dfTo8-57" target="Qqjow-uwfhJ0Yn_dfTo8-92">
          <mxGeometry relative="1" as="geometry" />
        </mxCell>
        <mxCell id="Qqjow-uwfhJ0Yn_dfTo8-104" style="edgeStyle=orthogonalEdgeStyle;rounded=0;orthogonalLoop=1;jettySize=auto;html=1;entryX=1.011;entryY=0.602;entryDx=0;entryDy=0;entryPerimeter=0;" edge="1" parent="WIyWlLk6GJQsqaUBKTNV-1" source="Qqjow-uwfhJ0Yn_dfTo8-57" target="Qqjow-uwfhJ0Yn_dfTo8-49">
          <mxGeometry relative="1" as="geometry">
            <Array as="points">
              <mxPoint x="633" y="810" />
            </Array>
          </mxGeometry>
        </mxCell>
        <mxCell id="Qqjow-uwfhJ0Yn_dfTo8-57" value="statment_no &lt;br&gt;equal &lt;br&gt;statement_count ?" style="rhombus;whiteSpace=wrap;html=1;" vertex="1" parent="WIyWlLk6GJQsqaUBKTNV-1">
          <mxGeometry x="553" y="645" width="160" height="90" as="geometry" />
        </mxCell>
        <mxCell id="Qqjow-uwfhJ0Yn_dfTo8-69" style="edgeStyle=orthogonalEdgeStyle;rounded=0;orthogonalLoop=1;jettySize=auto;html=1;" edge="1" parent="WIyWlLk6GJQsqaUBKTNV-1" target="Qqjow-uwfhJ0Yn_dfTo8-57">
          <mxGeometry relative="1" as="geometry">
            <mxPoint x="460" y="689.9999999999998" as="sourcePoint" />
          </mxGeometry>
        </mxCell>
        <mxCell id="Qqjow-uwfhJ0Yn_dfTo8-68" value="" style="edgeStyle=orthogonalEdgeStyle;rounded=0;orthogonalLoop=1;jettySize=auto;html=1;" edge="1" parent="WIyWlLk6GJQsqaUBKTNV-1" source="Qqjow-uwfhJ0Yn_dfTo8-60">
          <mxGeometry relative="1" as="geometry">
            <mxPoint x="400" y="669.9999999999998" as="targetPoint" />
          </mxGeometry>
        </mxCell>
        <mxCell id="Qqjow-uwfhJ0Yn_dfTo8-60" value="statement_no = statement_no + 1" style="rounded=1;whiteSpace=wrap;html=1;fontSize=12;glass=0;strokeWidth=1;shadow=0;" vertex="1" parent="WIyWlLk6GJQsqaUBKTNV-1">
          <mxGeometry x="327" y="535" width="146" height="40" as="geometry" />
        </mxCell>
        <mxCell id="Qqjow-uwfhJ0Yn_dfTo8-75" value="" style="edgeStyle=orthogonalEdgeStyle;rounded=0;orthogonalLoop=1;jettySize=auto;html=1;" edge="1" parent="WIyWlLk6GJQsqaUBKTNV-1" source="Qqjow-uwfhJ0Yn_dfTo8-70" target="Qqjow-uwfhJ0Yn_dfTo8-55">
          <mxGeometry relative="1" as="geometry" />
        </mxCell>
        <mxCell id="Qqjow-uwfhJ0Yn_dfTo8-70" value="statement_no = 1" style="rounded=1;whiteSpace=wrap;html=1;fontSize=12;glass=0;strokeWidth=1;shadow=0;" vertex="1" parent="WIyWlLk6GJQsqaUBKTNV-1">
          <mxGeometry x="340" y="375" width="120" height="40" as="geometry" />
        </mxCell>
        <mxCell id="Qqjow-uwfhJ0Yn_dfTo8-82" value="Yes" style="text;html=1;strokeColor=none;fillColor=none;align=center;verticalAlign=middle;whiteSpace=wrap;rounded=0;" vertex="1" parent="WIyWlLk6GJQsqaUBKTNV-1">
          <mxGeometry x="190" y="480" width="40" height="20" as="geometry" />
        </mxCell>
        <mxCell id="Qqjow-uwfhJ0Yn_dfTo8-94" value="" style="edgeStyle=orthogonalEdgeStyle;rounded=0;orthogonalLoop=1;jettySize=auto;html=1;" edge="1" parent="WIyWlLk6GJQsqaUBKTNV-1" source="Qqjow-uwfhJ0Yn_dfTo8-92" target="Qqjow-uwfhJ0Yn_dfTo8-60">
          <mxGeometry relative="1" as="geometry" />
        </mxCell>
        <mxCell id="Qqjow-uwfhJ0Yn_dfTo8-95" style="edgeStyle=orthogonalEdgeStyle;rounded=0;orthogonalLoop=1;jettySize=auto;html=1;entryX=1;entryY=0.5;entryDx=0;entryDy=0;exitX=0.5;exitY=0;exitDx=0;exitDy=0;" edge="1" parent="WIyWlLk6GJQsqaUBKTNV-1" source="Qqjow-uwfhJ0Yn_dfTo8-92" target="Qqjow-uwfhJ0Yn_dfTo8-55">
          <mxGeometry relative="1" as="geometry">
            <Array as="points">
              <mxPoint x="633" y="480" />
            </Array>
          </mxGeometry>
        </mxCell>
        <mxCell id="Qqjow-uwfhJ0Yn_dfTo8-92" value="statement % 50 = 1" style="rhombus;whiteSpace=wrap;html=1;" vertex="1" parent="WIyWlLk6GJQsqaUBKTNV-1">
          <mxGeometry x="570" y="515" width="126" height="80" as="geometry" />
        </mxCell>
        <mxCell id="Qqjow-uwfhJ0Yn_dfTo8-96" value="Yes" style="text;html=1;strokeColor=none;fillColor=none;align=center;verticalAlign=middle;whiteSpace=wrap;rounded=0;" vertex="1" parent="WIyWlLk6GJQsqaUBKTNV-1">
          <mxGeometry x="520" y="460" width="40" height="20" as="geometry" />
        </mxCell>
        <mxCell id="Qqjow-uwfhJ0Yn_dfTo8-97" value="No" style="text;html=1;strokeColor=none;fillColor=none;align=center;verticalAlign=middle;whiteSpace=wrap;rounded=0;" vertex="1" parent="WIyWlLk6GJQsqaUBKTNV-1">
          <mxGeometry x="510" y="535" width="40" height="20" as="geometry" />
        </mxCell>
        <mxCell id="Qqjow-uwfhJ0Yn_dfTo8-98" value="No" style="text;html=1;strokeColor=none;fillColor=none;align=center;verticalAlign=middle;whiteSpace=wrap;rounded=0;" vertex="1" parent="WIyWlLk6GJQsqaUBKTNV-1">
          <mxGeometry x="630" y="620" width="40" height="20" as="geometry" />
        </mxCell>
        <mxCell id="Qqjow-uwfhJ0Yn_dfTo8-100" value="Yes" style="text;html=1;strokeColor=none;fillColor=none;align=center;verticalAlign=middle;whiteSpace=wrap;rounded=0;" vertex="1" parent="WIyWlLk6GJQsqaUBKTNV-1">
          <mxGeometry x="590" y="760" width="40" height="20" as="geometry" />
        </mxCell>
        <mxCell id="Qqjow-uwfhJ0Yn_dfTo8-102" value="" style="edgeStyle=orthogonalEdgeStyle;rounded=0;orthogonalLoop=1;jettySize=auto;html=1;" edge="1" parent="WIyWlLk6GJQsqaUBKTNV-1" source="Qqjow-uwfhJ0Yn_dfTo8-101" target="Qqjow-uwfhJ0Yn_dfTo8-0">
          <mxGeometry relative="1" as="geometry" />
        </mxCell>
        <mxCell id="Qqjow-uwfhJ0Yn_dfTo8-101" value="start" style="ellipse;whiteSpace=wrap;html=1;" vertex="1" parent="WIyWlLk6GJQsqaUBKTNV-1">
          <mxGeometry x="146.25" y="20" width="82.5" height="30" as="geometry" />
        </mxCell>
        <mxCell id="Qqjow-uwfhJ0Yn_dfTo8-106" value="Print Statement" style="shape=display;whiteSpace=wrap;html=1;" vertex="1" parent="WIyWlLk6GJQsqaUBKTNV-1">
          <mxGeometry x="340" y="670" width="120" height="50" as="geometry" />
        </mxCell>
      </root>
    </mxGraphModel>
  </diagram>
</mxfile>
